<svg width="38" height="13" xmlns="http://www.w3.org/2000/svg"><path d="M35.788 10.448 1.423 6.993c-.264-.027-.442.229-.305.432C3.314 10.695 8.514 13 14.567 13h20.5c.14 0 .262-.08.303-.2l.685-1.988c.058-.168-.07-.344-.267-.364ZM37.9 4.782a.645.645 0 0 0-.449-.256l-9.5-1.13c-.343-.04-.665.176-.712.486-.047.309.198.594.544.635l1.076.128c.157.018.274.138.274.28v.873c0 .168-.163.3-.35.281l-2.533-.242c-.16-.015-.283-.137-.283-.28V3.081a.26.26 0 0 1 .053-.156l1.107-1.482a.514.514 0 0 0 .039-.568.643.643 0 0 0-.536-.31L13.33 0a.687.687 0 0 0-.545.236L9.699 4.11a.331.331 0 0 1-.292.117L.7 3.394a.685.685 0 0 0-.49.142.542.542 0 0 0-.21.42c0 .545.08 1.078.229 1.596.033.114.144.197.275.21l35.782 3.599c.151.015.293-.068.338-.198l1.348-3.91a.515.515 0 0 0-.072-.471Zm-19.623-3.13-.494 3.086c-.024.15-.173.257-.342.242-1.236-.112-5.878-.547-5.878-.547-.24-.023-.365-.27-.224-.446l2.175-2.718a.332.332 0 0 1 .273-.118l4.191.178c.187.008.325.157.299.322Zm6.866.411-.39.52a.261.261 0 0 0-.053.157v2.635c0 .168-.163.299-.35.28l-5.026-.48c-.178-.017-.306-.162-.28-.32l.512-3.202c.023-.144.165-.249.329-.242l5.01.213c.245.01.385.256.248.44Zm7.79 4.099c0 .168-.163.299-.35.28 0 0-1.315-.132-1.904-.194-.16-.016-.279-.137-.279-.28V5.15c0-.171.169-.303.359-.28l1.9.225c.157.02.274.14.274.28v.786Zm3.498-.284-.235.68c-.044.13-.185.212-.336.198l-1.377-.131c-.16-.016-.283-.137-.283-.281v-.74c0-.171.169-.304.359-.281l1.611.192c.194.023.319.196.261.363Z"/></svg>