<svg width="17" height="16" viewBox="0 0 17 16" xmlns="http://www.w3.org/2000/svg">
  <path
    d="M10.3891 0C9.86274 0 9.36878 0.260274 9.05196 0.635616C8.73513 1.01096 8.5605 1.46849 8.43327 1.95069C8.2312 2.72603 8.16883 3.5863 8.15386 4.36164C6.6745 4.45753 5.33485 4.88493 4.22221 5.54521C3.77067 5.17534 3.22682 4.96986 2.70543 4.97534C2.11169 4.98082 1.54788 5.23014 1.12877 5.74247C0.327973 6.72055 0.420277 8.32055 1.34831 9.27123C1.29093 9.56438 1.24852 9.86575 1.24852 10.1699C1.24852 13.3918 4.62635 16 8.79251 16C12.9587 16 16.3365 13.389 16.3365 10.1699C16.3365 9.86575 16.2941 9.56438 16.2367 9.27123C17.1647 8.32055 17.257 6.72055 16.4562 5.74247C16.0371 5.23014 15.4733 4.98082 14.8796 4.97534C14.3582 4.96986 13.8144 5.17534 13.3628 5.54521C12.2552 4.88767 10.923 4.46027 9.45111 4.36164C9.47107 3.64658 9.52346 2.90411 9.67064 2.34521C9.76295 1.99452 9.87271 1.73973 9.98997 1.6C10.1072 1.46027 10.192 1.40274 10.3891 1.40274C10.8157 1.40274 10.8706 1.53699 11.1276 1.86301C11.2573 2.0274 11.407 2.23288 11.6465 2.43288C11.8859 2.63288 12.2402 2.80548 12.6244 2.80548V1.40274C12.5171 1.40274 12.4971 1.4 12.4248 1.33699C12.3525 1.27397 12.2527 1.12877 12.1055 0.942466C11.8111 0.567123 11.2398 0 10.3891 0ZM14.5403 0.131507C13.5474 0.131507 12.7441 1.0137 12.7441 2.10411C12.7441 3.19452 13.5474 4.07671 14.5403 4.07671C15.5332 4.07671 16.3365 3.19452 16.3365 2.10411C16.3365 1.0137 15.5332 0.131507 14.5403 0.131507ZM14.5403 0.832877C15.179 0.832877 15.6979 1.40274 15.6979 2.10411C15.6979 2.80548 15.179 3.37534 14.5403 3.37534C13.9017 3.37534 13.3828 2.80548 13.3828 2.10411C13.3828 1.40274 13.9017 0.832877 14.5403 0.832877ZM8.79251 5.45753C12.3275 5.45753 15.3187 7.61918 15.3187 10.1699C15.3187 12.7233 12.3275 14.8822 8.79251 14.8822C5.25751 14.8822 2.26636 12.7233 2.26636 10.1699C2.26636 7.61918 5.25751 5.45753 8.79251 5.45753ZM2.72538 6.09315C2.90251 6.09589 3.08712 6.13973 3.26424 6.22466C2.6231 6.7589 2.11418 7.3726 1.76742 8.06575C1.52793 7.52329 1.59279 6.84658 1.88716 6.48767C2.10171 6.22466 2.39858 6.09041 2.72538 6.09315ZM14.8596 6.09315C15.1864 6.09041 15.4833 6.22466 15.6979 6.48767C15.9922 6.84658 16.0571 7.52329 15.8176 8.06575C15.4708 7.3726 14.9619 6.7589 14.3208 6.22466C14.4979 6.13973 14.6825 6.09589 14.8596 6.09315ZM6.23793 7.84658C5.59929 7.84658 5.08039 8.41644 5.08039 9.11781C5.08039 9.81918 5.59929 10.389 6.23793 10.389C6.87657 10.389 7.39547 9.81918 7.39547 9.11781C7.39547 8.41644 6.87657 7.84658 6.23793 7.84658ZM11.3471 7.84658C10.7084 7.84658 10.1895 8.41644 10.1895 9.11781C10.1895 9.81918 10.7084 10.389 11.3471 10.389C11.9857 10.389 12.5046 9.81918 12.5046 9.11781C12.5046 8.41644 11.9857 7.84658 11.3471 7.84658ZM5.61924 12.1644C6.02588 13.0877 7.28321 13.9836 8.79251 13.9836C10.3018 13.9836 11.5791 13.0877 11.9857 12.1644C11.2473 12.6877 10.0823 13.0411 8.79251 13.0411C7.50275 13.0411 6.35768 12.6877 5.61924 12.1644Z"
  />
</svg>
