<svg width="10" height="16" viewBox="0 0 10 16" xmlns="http://www.w3.org/2000/svg">
  <path
    d="M4.82193 2.42035C5.80332 2.42035 6.60144 3.18736 6.60144 4.1305C6.60144 5.0708 5.80332 5.83781 4.82193 5.83781C3.84054 5.83781 3.04243 5.0708 3.04243 4.1305C3.04243 3.18736 3.84054 2.42035 4.82193 2.42035ZM4.82193 8.25816C7.19264 8.25816 9.11995 6.40597 9.11995 4.1305C9.11995 1.85219 7.19264 0 4.82193 0C2.45123 0 0.526877 1.85219 0.526877 4.1305C0.526877 6.40597 2.45123 8.25816 4.82193 8.25816ZM6.56006 11.6273C7.43503 11.4342 8.27749 11.1018 9.05491 10.6331C9.64316 10.278 9.82052 9.53083 9.45102 8.96551C9.07856 8.39735 8.30409 8.22691 7.71289 8.58485C5.95408 9.6473 3.68979 9.6473 1.92802 8.58485C1.33978 8.22691 0.56235 8.39735 0.192851 8.96551C-0.176649 9.53083 0.000710447 10.278 0.588953 10.6331C1.36638 11.1018 2.20884 11.4342 3.08381 11.6273L0.680589 13.934C0.189894 14.4056 0.189894 15.1726 0.680589 15.6442C0.928892 15.88 1.24814 15.9993 1.57034 15.9993C1.89255 15.9993 2.21475 15.88 2.46305 15.6442L4.82193 13.3772L7.18377 15.6442C7.67447 16.1186 8.46963 16.1186 8.96328 15.6442C9.45397 15.1726 9.45397 14.4056 8.96328 13.934L6.56006 11.6273Z"
  />
</svg>
