<svg width="17" height="16" viewBox="0 0 17 16" xmlns="http://www.w3.org/2000/svg">
  <path
    d="M16.0624 7.64569C16.0638 7.64569 16.0649 7.64569 16.0663 7.64569C16.1663 7.64569 16.2616 7.60482 16.3293 7.53321C16.3981 7.46056 16.4322 7.36311 16.4232 7.26461C16.0634 3.4074 12.9305 0.352511 8.97314 0.00112562C8.87281 -0.00655875 8.77176 0.0252267 8.69723 0.0926396C8.62269 0.159703 8.58113 0.254361 8.5822 0.35321C8.64455 5.47939 9.33828 7.57408 16.0624 7.64569ZM16.0624 8.35404C9.33828 8.42565 8.64491 10.5203 8.58256 15.6465C8.58149 15.7454 8.62305 15.84 8.69758 15.9071C8.76423 15.9668 8.85131 16 8.94089 16C8.95164 16 8.96275 15.9997 8.9735 15.9986C12.9309 15.6472 16.0638 12.5927 16.4232 8.73512C16.4322 8.63662 16.3985 8.53917 16.3293 8.46652C16.2602 8.39386 16.1638 8.35789 16.0624 8.35404ZM7.43698 0.00287211C3.49211 0.364387 0.369261 3.41858 0.011289 7.26531C0.00233071 7.36381 0.0360138 7.46126 0.105172 7.53391C0.172896 7.60552 0.26857 7.64603 0.368186 7.64603C0.36962 7.64603 0.371053 7.64603 0.372486 7.64603C7.07435 7.57094 7.76628 5.47729 7.82935 0.354607C7.83042 0.255758 7.7885 0.160751 7.71397 0.0936875C7.63872 0.0266238 7.53803 -0.00620942 7.43698 0.00287211ZM0.372128 8.3537C0.260687 8.34147 0.173255 8.39317 0.104813 8.46582C0.0360139 8.53847 0.0019724 8.63592 0.0109307 8.73442C0.368903 12.5812 3.49211 15.6353 7.43698 15.9969C7.44809 15.9979 7.45955 15.9983 7.47066 15.9983C7.56024 15.9983 7.64696 15.9654 7.71361 15.9057C7.78814 15.8386 7.83007 15.7436 7.82899 15.6448C7.76592 10.5224 7.07435 8.42879 0.372128 8.3537Z"
  />
</svg>
