<svg xmlns="http://www.w3.org/2000/svg" xmlns:xlink="http://www.w3.org/1999/xlink"><symbol id="kinder" viewBox="0 0 17 16"><path d="M10.39 0c-.527 0-1.021.26-1.338.636-.317.375-.492.832-.619 1.315-.202.775-.264 1.635-.28 2.41-1.479.097-2.818.524-3.93 1.184-.452-.37-.996-.575-1.518-.57a2.024 2.024 0 0 0-1.576.767c-.801.979-.709 2.579.22 3.53a4.69 4.69 0 0 0-.1.898c0 3.222 3.377 5.83 7.544 5.83 4.166 0 7.544-2.611 7.544-5.83 0-.304-.043-.606-.1-.899.928-.95 1.02-2.55.22-3.529a2.024 2.024 0 0 0-1.577-.767c-.522-.005-1.066.2-1.517.57-1.108-.657-2.44-1.085-3.912-1.183.02-.715.072-1.458.22-2.017.092-.35.202-.605.319-.745.117-.14.202-.197.4-.197.426 0 .48.134.738.46.13.164.279.37.518.57.24.2.594.372.978.372V1.403c-.107 0-.127-.003-.2-.066-.072-.063-.171-.208-.319-.395C11.811.567 11.24 0 10.39 0Zm4.15.132c-.993 0-1.796.882-1.796 1.972 0 1.09.803 1.973 1.796 1.973s1.797-.882 1.797-1.973c0-1.09-.804-1.972-1.797-1.972Zm0 .7c.639 0 1.158.57 1.158 1.272 0 .701-.519 1.271-1.158 1.271-.638 0-1.157-.57-1.157-1.27 0-.702.519-1.272 1.157-1.272ZM8.793 5.459c3.535 0 6.526 2.161 6.526 4.712 0 2.553-2.992 4.712-6.526 4.712-3.535 0-6.527-2.159-6.527-4.712 0-2.55 2.992-4.712 6.527-4.712Zm-6.068.635c.178.003.362.047.54.132-.642.534-1.15 1.148-1.498 1.84-.24-.542-.174-1.218.12-1.577.215-.263.512-.398.838-.395Zm12.135 0c.326-.003.623.132.838.395.294.359.36 1.035.12 1.578-.347-.693-.856-1.307-1.497-1.841.177-.085.361-.13.539-.132ZM6.238 7.847c-.639 0-1.158.57-1.158 1.27 0 .702.52 1.272 1.158 1.272.639 0 1.157-.57 1.157-1.271 0-.702-.518-1.271-1.157-1.271Zm5.11 0c-.64 0-1.159.57-1.159 1.27 0 .702.52 1.272 1.158 1.272.639 0 1.158-.57 1.158-1.271 0-.702-.52-1.271-1.158-1.271Zm-5.729 4.317c.407.924 1.664 1.82 3.174 1.82 1.509 0 2.786-.896 3.193-1.82-.739.524-1.904.877-3.193.877-1.29 0-2.435-.353-3.174-.877Z"/></symbol><symbol id="logo" viewBox="0 0 42 22"><path fill-rule="evenodd" clip-rule="evenodd" d="M.542 18.02 8.804 7.262l2.26 1.165L16.442 0l3.35 3.855 1.248-.986 4.832 5.917 3.43-3.945 9.586 13.179-9.236-11.206-1.403 4.706 1.286 3.72-8.261-10.982-.09 3.748 4.688 10.014-8.768-15.51 2.533 8.383-3.546-8.159-1.949 5.424.39-3.541L9.66 17.392l.584-5.379L8.22 9.862.542 18.02Z"/><path fill-rule="evenodd" clip-rule="evenodd" d="M41.665 19.702C28.585 9.511 8.225 23.522 0 18.12c9.043 7.657 30.181-5.287 41.665 1.583Z"/><path fill-rule="evenodd" clip-rule="evenodd" d="M42 20.504c-10.263-6.31-25.526 2.47-33.349.438 8.477 3.97 24.258-4.826 33.349-.438Z"/></symbol><symbol id="ok" viewBox="0 0 10 16"><path d="M4.822 2.42c.981 0 1.78.767 1.78 1.71 0 .94-.799 1.708-1.78 1.708s-1.78-.767-1.78-1.708c0-.943.799-1.71 1.78-1.71Zm0 5.838c2.37 0 4.298-1.852 4.298-4.127C9.12 1.851 7.193 0 4.822 0 2.452 0 .527 1.852.527 4.13c0 2.276 1.924 4.128 4.295 4.128Zm1.738 3.37a8.285 8.285 0 0 0 2.495-.995 1.183 1.183 0 0 0 .396-1.667 1.288 1.288 0 0 0-1.738-.381 5.648 5.648 0 0 1-5.785 0c-.588-.358-1.366-.188-1.735.38a1.183 1.183 0 0 0 .396 1.668c.777.469 1.62.801 2.495.994L.68 13.934a1.177 1.177 0 0 0 0 1.71 1.295 1.295 0 0 0 1.782 0l2.359-2.267 2.362 2.267a1.29 1.29 0 0 0 1.78 0c.49-.471.49-1.238 0-1.71L6.56 11.627Z"/></symbol><symbol id="ring" viewBox="0 0 17 16"><path d="M16.062 7.646h.004c.1 0 .196-.041.263-.113a.345.345 0 0 0 .094-.268C16.063 3.407 12.931.353 8.973 0a.37.37 0 0 0-.276.092.345.345 0 0 0-.115.26c.063 5.126.756 7.221 7.48 7.293Zm0 .708c-6.724.072-7.417 2.166-7.48 7.293a.345.345 0 0 0 .116.26.366.366 0 0 0 .275.092c3.958-.352 7.09-3.406 7.45-7.264a.343.343 0 0 0-.094-.268.382.382 0 0 0-.267-.113ZM7.437.003C3.492.364.369 3.419.011 7.265a.343.343 0 0 0 .094.269.362.362 0 0 0 .263.112h.004C7.074 7.571 7.766 5.477 7.83.355a.346.346 0 0 0-.115-.261.367.367 0 0 0-.277-.091ZM.372 8.353c-.111-.012-.199.04-.267.113a.345.345 0 0 0-.094.268c.358 3.847 3.481 6.901 7.426 7.263a.364.364 0 0 0 .277-.091.346.346 0 0 0 .115-.261c-.063-5.123-.755-7.216-7.457-7.291Z"/></symbol></svg>